<?xml version="1.0" encoding="UTF-8" standalone="no"?><!DOCTYPE svg PUBLIC "-//W3C//DTD SVG 1.1//EN" "http://www.w3.org/Graphics/SVG/1.1/DTD/svg11.dtd"><svg width="100%" height="100%" viewBox="0 0 2417 2000" version="1.1" xmlns="http://www.w3.org/2000/svg" xmlns:xlink="http://www.w3.org/1999/xlink" xml:space="preserve" xmlns:serif="http://www.serif.com/" style="fill-rule:evenodd;clip-rule:evenodd;stroke-linejoin:round;stroke-miterlimit:2;"><rect id="Artboard1" x="0" y="0" width="2416.67" height="2000" style="fill:none;"/><g id="combined-logo" serif:id="combined logo"><g id="Laravel"><path d="M1817.16,521.918c0.599,2.36 0.905,4.792 0.911,7.236l0,379.865c0,9.911 -5,19.096 -13.082,24.027l-299.696,183.562l-0,363.835c-0,9.901 -4.947,19.041 -13.018,24.027l-625.59,383.119c-1.432,0.865 -2.994,1.419 -4.556,2.008c-0.586,0.208 -1.139,0.588 -1.757,0.762c-4.373,1.225 -8.97,1.225 -13.343,-0c-0.716,-0.208 -1.367,-0.624 -2.05,-0.901c-1.432,-0.554 -2.929,-1.038 -4.296,-1.869l-625.46,-383.119c-8.077,-4.936 -13.076,-14.117 -13.082,-24.027l-0,-1139.59c-0,-2.493 0.325,-4.916 0.911,-7.27c0.195,-0.797 0.651,-1.524 0.911,-2.32c0.488,-1.454 0.944,-2.943 1.66,-4.293c0.488,-0.9 1.204,-1.627 1.79,-2.458c0.748,-1.108 1.432,-2.25 2.31,-3.22c0.749,-0.796 1.725,-1.385 2.571,-2.077c0.944,-0.831 1.79,-1.731 2.864,-2.389l0.033,0l312.746,-191.559c8.049,-4.928 17.986,-4.928 26.035,-0l312.746,191.559l0.065,0c1.041,0.692 1.92,1.558 2.864,2.354c0.846,0.693 1.79,1.316 2.538,2.078c0.911,1.004 1.562,2.146 2.343,3.254c0.554,0.831 1.302,1.558 1.758,2.458c0.748,1.385 1.171,2.839 1.692,4.293c0.26,0.796 0.716,1.523 0.911,2.354c0.599,2.36 0.906,4.792 0.912,7.236l-0,711.779l260.61,-159.639l0,-363.869c0,-2.424 0.326,-4.882 0.912,-7.202c0.227,-0.83 0.65,-1.558 0.911,-2.354c0.521,-1.454 0.976,-2.943 1.692,-4.293c0.488,-0.9 1.204,-1.627 1.757,-2.458c0.782,-1.108 1.432,-2.25 2.344,-3.22c0.748,-0.796 1.692,-1.385 2.538,-2.077c0.976,-0.831 1.822,-1.731 2.864,-2.389l0.032,0l312.779,-191.559c8.047,-4.935 17.988,-4.935 26.035,-0l312.746,191.559c1.107,0.693 1.953,1.558 2.929,2.354c0.814,0.693 1.757,1.316 2.506,2.078c0.911,1.004 1.562,2.146 2.343,3.254c0.586,0.831 1.302,1.558 1.757,2.458c0.749,1.35 1.172,2.839 1.693,4.293c0.293,0.796 0.716,1.524 0.911,2.354Zm-51.224,371.071l-0,-315.884l-109.445,67.027l-151.198,92.611l-0,315.885l260.675,-159.639l-0.032,0Zm-433.268,563.55l120.522,-308.218l-148.725,90.361l-424.697,257.86l-0,319.069l452.9,-359.072Zm-1078.39,-1067.74l86.991,1056.63l486.366,370.144l-0,-319.001l-299.533,-180.342l-0.098,-0.069l-0.13,-0.069c-1.009,-0.624 -1.855,-1.524 -2.799,-2.285c-0.814,-0.693 -1.757,-1.247 -2.473,-2.008l-0.065,-0.104c-0.847,-0.866 -1.432,-1.939 -2.148,-2.908c-0.651,-0.935 -1.432,-1.732 -1.953,-2.701l-0.032,-0.104c-0.586,-1.038 -0.944,-2.285 -1.367,-3.462c-0.423,-1.039 -0.977,-2.008 -1.237,-3.116l-0,-0.034c-0.325,-1.316 -0.391,-2.701 -0.521,-4.051c-0.13,-1.039 -0.39,-2.077 -0.39,-3.116l-0,-0.069l-101.559,-546.456l-49.607,-289.89l-109.445,-66.958l-0,-0.034Zm286.711,-207.52l-260.578,159.569l260.513,159.57l260.546,-159.604l-260.546,-159.535l0.065,-0Zm135.512,995.846l151.166,-92.577l0,-695.749l-109.445,67.026l-151.198,92.612l-0,695.749l109.477,-67.061Zm802.759,-694.287l-260.546,46.315l260.546,159.57l260.513,-159.604l-260.513,-46.281Zm-26.068,253.904l-151.199,-92.611l-109.444,-67.027l-0,315.884l151.166,92.577l109.477,67.062l-0,-315.885Zm-599.522,711.848l382.162,-232.101l191.032,-115.981l-260.351,-159.466l-299.761,183.597l-273.205,167.325l260.123,156.626Z" style="fill:#ff2d20;"/><path d="M1853.94,525.052c0.599,2.359 0.906,4.792 0.911,7.235l0,379.865c0.001,9.912 -5,19.096 -13.082,24.027l-299.696,183.562l-0,363.835c-0,9.902 -4.947,19.042 -13.018,24.027l-625.589,383.119c-1.432,0.866 -2.994,1.42 -4.557,2.008c-0.585,0.208 -1.139,0.589 -1.757,0.762c-4.373,1.225 -8.97,1.225 -13.343,-0c-0.716,-0.208 -1.367,-0.623 -2.05,-0.9c-1.432,-0.554 -2.929,-1.039 -4.296,-1.87l-625.459,-383.119c-8.078,-4.936 -13.077,-14.117 -13.083,-24.027l-0,-1139.59c-0,-2.492 0.325,-4.916 0.911,-7.27c0.195,-0.796 0.651,-1.523 0.911,-2.32c0.489,-1.454 0.944,-2.942 1.66,-4.293c0.488,-0.9 1.204,-1.627 1.79,-2.458c0.749,-1.108 1.432,-2.25 2.311,-3.22c0.748,-0.796 1.724,-1.384 2.571,-2.077c0.943,-0.831 1.79,-1.731 2.863,-2.389l0.033,0l312.746,-191.559c8.049,-4.927 17.986,-4.927 26.035,-0l312.746,191.559l0.065,0c1.042,0.693 1.92,1.558 2.864,2.355c0.846,0.692 1.79,1.315 2.538,2.077c0.912,1.004 1.563,2.146 2.344,3.254c0.553,0.831 1.301,1.558 1.757,2.458c0.749,1.385 1.172,2.839 1.692,4.293c0.261,0.797 0.716,1.524 0.912,2.355c0.599,2.359 0.905,4.792 0.911,7.235l-0,711.779l260.611,-159.639l-0,-363.869c-0,-2.424 0.325,-4.882 0.911,-7.201c0.228,-0.831 0.651,-1.558 0.911,-2.355c0.521,-1.454 0.976,-2.942 1.692,-4.293c0.488,-0.9 1.204,-1.627 1.758,-2.458c0.781,-1.108 1.432,-2.25 2.343,-3.22c0.748,-0.796 1.692,-1.384 2.538,-2.077c0.977,-0.831 1.823,-1.731 2.864,-2.389l0.033,0l312.778,-191.559c8.047,-4.934 17.988,-4.934 26.035,-0l312.746,191.559c1.107,0.693 1.953,1.558 2.929,2.355c0.814,0.692 1.758,1.315 2.506,2.077c0.911,1.004 1.562,2.146 2.343,3.254c0.586,0.831 1.302,1.558 1.758,2.458c0.748,1.351 1.171,2.839 1.692,4.293c0.293,0.797 0.716,1.524 0.911,2.355Zm-51.224,371.07l0,-315.884l-109.445,67.027l-151.198,92.612l-0,315.884l260.676,-159.639l-0.033,0Zm-433.268,563.55l120.522,-308.218l-148.725,90.362l-424.697,257.859l0,319.069l452.9,-359.072Zm-1078.39,-1067.74l86.992,1056.63l486.365,370.143l0,-319l-299.533,-180.343l-0.098,-0.069l-0.13,-0.069c-1.009,-0.623 -1.855,-1.523 -2.799,-2.285c-0.813,-0.693 -1.757,-1.247 -2.473,-2.008l-0.065,-0.104c-0.846,-0.866 -1.432,-1.939 -2.148,-2.908c-0.651,-0.935 -1.432,-1.731 -1.953,-2.701l-0.032,-0.104c-0.586,-1.038 -0.944,-2.285 -1.367,-3.462c-0.423,-1.038 -0.976,-2.008 -1.237,-3.116l0,-0.034c-0.325,-1.316 -0.39,-2.701 -0.52,-4.051c-0.131,-1.039 -0.391,-2.077 -0.391,-3.116l-0,-0.069l-101.558,-546.455l-49.608,-289.891l-109.445,-66.957l0,-0.035Zm286.711,-207.52l-260.578,159.569l260.513,159.57l260.546,-159.604l-260.546,-159.535l0.065,0Zm135.513,995.846l151.166,-92.577l-0,-695.749l-109.445,67.027l-151.199,92.612l0,695.748l109.478,-67.061Zm802.758,-694.286l-260.546,46.314l260.546,159.57l260.513,-159.604l-260.513,-46.28Zm-26.068,253.904l-151.198,-92.612l-109.445,-67.027l-0,315.884l151.166,92.578l109.477,67.061l0,-315.884Zm-599.522,711.847l382.162,-232.101l191.032,-115.981l-260.35,-159.465l-299.761,183.596l-273.206,167.325l260.123,156.626Z" style="fill:#002344;"/><path d="M1907.48,505.941c0.6,2.359 0.906,4.792 0.912,7.236l-0,379.864c-0,9.912 -5.001,19.096 -13.083,24.027l-299.696,183.562l0,363.835c0,9.902 -4.947,19.042 -13.017,24.027l-625.59,383.119c-1.432,0.866 -2.994,1.42 -4.556,2.008c-0.586,0.208 -1.139,0.589 -1.758,0.762c-4.372,1.225 -8.97,1.225 -13.343,-0c-0.716,-0.208 -1.366,-0.623 -2.05,-0.9c-1.432,-0.554 -2.929,-1.039 -4.296,-1.87l-625.459,-383.119c-8.077,-4.936 -13.076,-14.117 -13.083,-24.027l0,-1139.59c0,-2.493 0.326,-4.917 0.911,-7.271c0.196,-0.796 0.651,-1.523 0.912,-2.32c0.488,-1.454 0.943,-2.942 1.659,-4.293c0.489,-0.9 1.205,-1.627 1.79,-2.458c0.749,-1.108 1.432,-2.25 2.311,-3.219c0.748,-0.797 1.725,-1.385 2.571,-2.078c0.944,-0.831 1.79,-1.731 2.864,-2.389l0.032,0l312.746,-191.559c8.049,-4.927 17.986,-4.927 26.035,-0l312.746,191.559l0.066,0c1.041,0.693 1.92,1.558 2.863,2.355c0.847,0.692 1.79,1.315 2.539,2.077c0.911,1.004 1.562,2.146 2.343,3.254c0.553,0.831 1.302,1.558 1.757,2.458c0.749,1.385 1.172,2.839 1.693,4.293c0.26,0.797 0.716,1.524 0.911,2.355c0.599,2.359 0.905,4.792 0.911,7.236l0,711.778l260.611,-159.639l-0,-363.869c-0,-2.424 0.325,-4.882 0.911,-7.201c0.228,-0.831 0.651,-1.558 0.911,-2.354c0.521,-1.455 0.977,-2.943 1.693,-4.294c0.488,-0.9 1.204,-1.627 1.757,-2.458c0.781,-1.108 1.432,-2.25 2.343,-3.219c0.749,-0.797 1.692,-1.385 2.539,-2.078c0.976,-0.831 1.822,-1.731 2.863,-2.389l0.033,0l312.779,-191.559c8.047,-4.934 17.987,-4.934 26.035,-0l312.746,191.559c1.106,0.693 1.952,1.558 2.929,2.355c0.813,0.692 1.757,1.315 2.505,2.077c0.912,1.004 1.563,2.146 2.344,3.254c0.585,0.831 1.301,1.558 1.757,2.458c0.748,1.351 1.171,2.839 1.692,4.294c0.293,0.796 0.716,1.523 0.911,2.354Zm-51.224,371.07l0,-315.884l-109.444,67.027l-151.199,92.612l0,315.884l260.676,-159.639l-0.033,0Zm-433.267,563.55l120.521,-308.218l-148.725,90.362l-424.697,257.859l0,319.07l452.901,-359.073Zm-1078.39,-1067.74l86.992,1056.63l486.365,370.143l0,-319l-299.533,-180.343l-0.098,-0.069l-0.13,-0.069c-1.009,-0.623 -1.855,-1.523 -2.798,-2.285c-0.814,-0.692 -1.758,-1.246 -2.474,-2.008l-0.065,-0.104c-0.846,-0.865 -1.432,-1.939 -2.148,-2.908c-0.651,-0.935 -1.432,-1.731 -1.952,-2.701l-0.033,-0.103c-0.586,-1.039 -0.944,-2.285 -1.367,-3.463c-0.423,-1.038 -0.976,-2.008 -1.236,-3.115l-0,-0.035c-0.326,-1.316 -0.391,-2.701 -0.521,-4.051c-0.13,-1.038 -0.391,-2.077 -0.391,-3.116l0,-0.069l-101.558,-546.455l-49.608,-289.891l-109.445,-66.957l0,-0.035Zm286.711,-207.52l-260.578,159.57l260.513,159.569l260.546,-159.604l-260.546,-159.535l0.065,0Zm135.513,995.846l151.166,-92.577l-0,-695.749l-109.445,67.027l-151.199,92.612l0,695.749l109.478,-67.062Zm802.758,-694.286l-260.546,46.315l260.546,159.569l260.513,-159.604l-260.513,-46.28Zm-26.068,253.904l-151.198,-92.612l-109.445,-67.027l0,315.884l151.166,92.578l109.477,67.061l0,-315.884Zm-599.522,711.848l382.162,-232.101l191.033,-115.982l-260.351,-159.465l-299.761,183.596l-273.205,167.325l260.122,156.627Z" style="fill:#e3e3e3;"/></g><g id="translate"><path d="M1325.07,1324.79l-202.863,-200.467l2.396,-2.396c138.969,-154.943 238.005,-333.048 296.308,-521.535l234.012,0l0,-160.134l-559.072,-0l-0,-159.735l-159.735,-0l-0,159.735l-559.073,-0l0,158.936l892.12,0c-53.91,154.144 -138.171,300.302 -253.18,428.09c-74.277,-82.663 -135.775,-172.514 -184.494,-267.556l-159.735,-0c58.304,130.184 138.171,253.18 238.005,364.195l-406.126,401.334l113.013,113.013l399.337,-399.337l248.388,248.387l60.699,-162.53Zm449.654,-405.327l-159.735,-0l-359.403,958.409l159.735,0l89.851,-239.602l379.37,-0l89.851,239.602l159.735,0l-359.404,-958.409Zm-209.652,559.072l129.785,-346.226l129.784,346.226l-259.569,-0Z" style="fill:#ff2d20;fill-rule:nonzero;"/><path d="M1405.47,1300.33l-202.863,-200.467l2.396,-2.396c138.969,-154.943 238.005,-333.047 296.308,-521.535l234.012,0l0,-160.134l-559.072,0l-0,-159.735l-159.735,0l-0,159.735l-559.073,0l0,158.936l892.12,0c-53.91,154.145 -138.171,300.302 -253.18,428.09c-74.277,-82.663 -135.775,-172.514 -184.494,-267.556l-159.735,-0c58.304,130.184 138.171,253.18 238.005,364.196l-406.126,401.334l113.013,113.012l399.337,-399.337l248.388,248.388l60.699,-162.531Zm449.654,-405.327l-159.735,-0l-359.403,958.41l159.735,-0l89.85,-239.603l379.371,0l89.851,239.603l159.735,-0l-359.404,-958.41Zm-209.652,559.072l129.785,-346.225l129.784,346.225l-259.569,0Z" style="fill:#fff;fill-rule:nonzero;"/><path d="M1380.5,1315.21l-202.863,-200.467l2.396,-2.396c138.969,-154.943 238.005,-333.048 296.308,-521.535l234.012,-0l-0,-160.134l-559.073,-0l0,-159.735l-159.735,-0l0,159.735l-559.072,-0l0,158.936l892.12,-0c-53.911,154.144 -138.171,300.302 -253.18,428.09c-74.277,-82.663 -135.775,-172.514 -184.494,-267.556l-159.735,-0c58.303,130.184 138.171,253.18 238.005,364.195l-406.126,401.334l113.013,113.013l399.337,-399.338l248.388,248.388l60.699,-162.53Zm449.654,-405.327l-159.735,-0l-359.404,958.409l159.735,0l89.851,-239.602l379.371,-0l89.851,239.602l159.735,0l-359.404,-958.409Zm-209.652,559.072l129.785,-346.226l129.784,346.226l-259.569,-0Z" style="fill:#002344;fill-rule:nonzero;"/><path d="M1350.8,1319.37l-188.934,-191.975l2.232,-2.295c129.427,-148.379 221.662,-318.939 275.962,-499.441l217.943,-0l-0,-153.351l-520.683,0l-0,-152.968l-148.767,0l0,152.968l-520.683,0l0,152.204l830.861,-0c-50.208,147.614 -128.683,287.58 -235.795,409.955c-69.176,-79.161 -126.451,-165.206 -171.825,-256.222l-148.766,-0c54.299,124.669 128.683,242.454 221.662,348.767l-378.239,384.333l105.252,108.225l371.916,-382.421l231.332,237.866l56.532,-155.645Zm418.777,-388.157l-148.766,0l-334.725,917.809l148.767,0l83.681,-229.452l353.32,0l83.682,229.452l148.766,0l-334.725,-917.809Zm-195.256,535.389l120.873,-331.559l120.873,331.559l-241.746,-0Z" style="fill:#14479d;fill-rule:nonzero;"/></g><g id="Laravel-Auto-Translator" serif:id="Laravel Auto-Translator"><g transform="matrix(3.57855,-3.65509,3.65509,3.57855,-3314.16,227.319)"><g transform="matrix(12,0,0,12,360.028,736.018)"><path d="M0.115,-0.757c-0,0 0.244,0.003 0.244,0.003c-0,0.2 0,0.4 0.001,0.601c-0,-0 0.375,-0.001 0.375,-0.001c0,0 0.001,0.195 0.001,0.195c-0.206,0.001 -0.413,0.002 -0.619,0.003c-0.001,-0.267 -0.002,-0.534 -0.002,-0.801Z" style="fill:#fff;fill-rule:nonzero;"/></g><g transform="matrix(8.57143,0,0,8.57143,368.031,736.018)"><path d="M0.687,-0.074c0,0 -0.268,0.001 -0.268,0.001c-0,-0 -0.037,0.13 -0.037,0.13c0,0 -0.243,0.001 -0.243,0.001c0.096,-0.264 0.191,-0.527 0.287,-0.79c0,-0 0.257,0.001 0.257,0.001c0.095,0.262 0.191,0.524 0.287,0.786c-0,0 -0.245,0.001 -0.245,0.001c0,-0 -0.038,-0.13 -0.038,-0.13Zm-0.05,-0.17c0,0 -0.084,-0.283 -0.084,-0.283c-0,-0 -0.084,0.283 -0.084,0.283c0,0 0.168,0 0.168,0Z" style="fill:#fff;fill-rule:nonzero;"/></g><g transform="matrix(8.57143,0,0,8.57143,374.699,736.018)"><path d="M0.269,0.055c-0.001,-0.261 -0.001,-0.522 -0.001,-0.784c-0,0 0.385,0.003 0.385,0.003c0.053,0 0.111,0.002 0.162,0.02c0.037,0.013 0.068,0.038 0.09,0.071c0.025,0.038 0.034,0.082 0.034,0.126c0.001,0.039 -0.007,0.078 -0.026,0.112c-0.017,0.031 -0.042,0.057 -0.071,0.076c-0.024,0.015 -0.053,0.024 -0.081,0.031c0.019,0.006 0.044,0.016 0.06,0.028c0.012,0.009 0.029,0.031 0.037,0.041c0.009,0.012 0.025,0.033 0.032,0.048c-0,0 0.111,0.225 0.111,0.225c-0,0 -0.258,0.001 -0.258,0.001c-0,0 -0.124,-0.238 -0.124,-0.238c-0.009,-0.018 -0.023,-0.046 -0.041,-0.06c-0.017,-0.012 -0.037,-0.018 -0.057,-0.018l-0.02,0c-0,0 0.001,0.317 0.001,0.317c-0,-0 -0.233,0.001 -0.233,0.001Zm0.231,-0.466c0,0 0.098,0.001 0.098,0.001c0.015,-0 0.049,-0.008 0.06,-0.011c0.016,-0.003 0.029,-0.012 0.038,-0.024c0.009,-0.013 0.014,-0.029 0.014,-0.045c0,-0.022 -0.006,-0.044 -0.023,-0.058c-0.022,-0.02 -0.058,-0.021 -0.086,-0.021c0,0 -0.101,-0 -0.101,-0c0,-0 0,0.158 0,0.158Z" style="fill:#fff;fill-rule:nonzero;"/></g><g transform="matrix(8.57143,0,0,8.57143,381.366,736.018)"><path d="M0.743,-0.077c0,0 -0.256,0.001 -0.256,0.001c0,-0 -0.034,0.128 -0.034,0.128c-0,-0 -0.232,0 -0.232,0c0.091,-0.258 0.182,-0.516 0.274,-0.774c0,-0 0.245,0.001 0.245,0.001c0.09,0.257 0.181,0.514 0.272,0.771c-0,-0 -0.233,0 -0.233,0c0,0 -0.036,-0.127 -0.036,-0.127Zm-0.047,-0.167c-0,0 -0.081,-0.277 -0.081,-0.277c0,-0 -0.079,0.277 -0.079,0.277c-0,0 0.16,0 0.16,0Z" style="fill:#fff;fill-rule:nonzero;"/></g><g transform="matrix(8.57143,0,0,8.57143,387.56,736.018)"><path d="M0.233,-0.72c-0,0 0.232,0.002 0.232,0.002c0.053,0.184 0.106,0.368 0.16,0.552c0.052,-0.183 0.104,-0.367 0.157,-0.55c-0,0 0.221,0.001 0.221,0.001c-0.087,0.255 -0.174,0.509 -0.261,0.763c0,0 -0.238,0.001 -0.238,0.001c-0.09,-0.256 -0.181,-0.512 -0.271,-0.769Z" style="fill:#fff;fill-rule:nonzero;"/></g><g transform="matrix(8.57143,0,0,8.57143,394.227,736.018)"><path d="M0.296,-0.714c0.191,0.001 0.383,0.002 0.574,0.004c0,-0 0,0.161 0,0.161c0,0 -0.358,-0.002 -0.358,-0.002c-0,0 -0,0.121 -0,0.121c-0,0 0.332,0.001 0.332,0.001c0,0 0,0.154 0,0.154c0,0 -0.332,-0 -0.332,-0c-0,-0 0,0.15 0,0.15c0,-0 0.369,-0.001 0.369,-0.001c-0,0 -0,0.171 -0,0.171c-0.195,0.001 -0.39,0.002 -0.585,0.002c-0,-0.254 -0,-0.507 -0,-0.761Z" style="fill:#fff;fill-rule:nonzero;"/></g><g transform="matrix(8.57143,0,0,8.57143,400.417,736.018)"><path d="M0.273,-0.709c-0,-0 0.211,0.001 0.211,0.001c-0.001,0.189 -0.001,0.378 -0.001,0.567c0,0 0.326,-0 0.326,-0c0,-0 0.001,0.184 0.001,0.184c-0.179,0.001 -0.358,0.001 -0.537,0.002c-0.001,-0.252 -0.001,-0.503 -0,-0.754Z" style="fill:#fff;fill-rule:nonzero;"/></g><g transform="matrix(12,0,0,12,410.136,736.018)"><path d="M0.567,-0.093c-0,-0 -0.229,-0 -0.229,-0c-0,-0 -0.032,0.122 -0.032,0.122c0,0 -0.208,0.001 -0.208,0.001c0.083,-0.248 0.165,-0.495 0.249,-0.742c-0,-0 0.219,0.002 0.219,0.002c0.08,0.246 0.16,0.492 0.241,0.738c-0,-0 -0.208,0 -0.208,0c-0,0 -0.032,-0.121 -0.032,-0.121Zm-0.042,-0.16c0,0 -0.071,-0.266 -0.071,-0.266c-0,-0 -0.072,0.266 -0.072,0.266c-0,-0 0.143,0 0.143,0Z" style="fill:#fff;fill-rule:nonzero;"/></g><g transform="matrix(8.57143,0,0,8.57143,419.47,736.018)"><path d="M0.516,-0.692c0,-0 0.194,0.001 0.194,0.001c-0,0 -0.001,0.434 -0.001,0.434c-0,0.042 -0.006,0.083 -0.018,0.122c-0.011,0.037 -0.029,0.071 -0.054,0.101c-0.021,0.025 -0.047,0.047 -0.078,0.06c-0.042,0.019 -0.09,0.025 -0.136,0.025c-0.033,0 -0.067,-0.003 -0.1,-0.007c-0.032,-0.005 -0.064,-0.013 -0.092,-0.03c-0.027,-0.016 -0.049,-0.038 -0.068,-0.063c-0.019,-0.025 -0.034,-0.054 -0.042,-0.084c-0.01,-0.041 -0.018,-0.083 -0.018,-0.124c0,-0 0.001,-0.438 0.001,-0.438c0,-0 0.196,0.001 0.196,0.001c0,0 -0.001,0.447 -0.001,0.447c0,0.033 0.007,0.068 0.029,0.094c0.02,0.023 0.049,0.034 0.08,0.034c0.03,-0.001 0.059,-0.01 0.079,-0.034c0.022,-0.025 0.028,-0.061 0.028,-0.093c0,-0 0.001,-0.446 0.001,-0.446Z" style="fill:#fff;fill-rule:nonzero;"/></g><g transform="matrix(8.57143,0,0,8.57143,426.61,736.018)"><path d="M-0.039,-0.69c0.193,0.001 0.386,0.003 0.579,0.004c0,0 -0,0.178 -0,0.178c-0,0 -0.193,-0.001 -0.193,-0.001c-0.001,0.182 -0.001,0.363 -0.001,0.545c-0,-0 -0.191,0 -0.191,0c0,-0.182 0,-0.364 0.001,-0.546c-0,0 -0.196,-0.001 -0.196,-0.001c0,0 0.001,-0.179 0.001,-0.179Z" style="fill:#fff;fill-rule:nonzero;"/></g><g transform="matrix(8.57143,0,0,8.57143,432.507,736.018)"><path d="M-0.116,-0.325c-0,-0.096 0.019,-0.198 0.084,-0.274c0.058,-0.068 0.142,-0.097 0.23,-0.096c0.087,0 0.173,0.029 0.231,0.097c0.062,0.075 0.08,0.175 0.079,0.269c0,0.069 -0.007,0.142 -0.035,0.206c-0.022,0.05 -0.057,0.094 -0.102,0.125c-0.05,0.032 -0.109,0.044 -0.167,0.045c-0.058,-0 -0.119,-0.009 -0.17,-0.039c-0.048,-0.028 -0.084,-0.072 -0.109,-0.122c-0.032,-0.065 -0.042,-0.139 -0.041,-0.211Zm0.187,0.002c0,0.051 0.003,0.113 0.034,0.156c0.022,0.031 0.055,0.048 0.093,0.048c0.037,-0 0.071,-0.016 0.092,-0.047c0.032,-0.045 0.033,-0.114 0.034,-0.166c-0,-0.049 -0.004,-0.107 -0.034,-0.148c-0.022,-0.031 -0.056,-0.047 -0.093,-0.047c-0.037,-0.001 -0.069,0.017 -0.091,0.047c-0.031,0.043 -0.034,0.106 -0.035,0.157Z" style="fill:#fff;fill-rule:nonzero;"/></g><g transform="matrix(12,0,0,12,439.647,736.018)"><path d="M-0.186,-0.313c-0,0 0.238,0.001 0.238,0.001c0,0 0,0.153 0,0.153c0,-0 -0.239,-0.001 -0.239,-0.001c0,0 0.001,-0.153 0.001,-0.153Z" style="fill:#fff;fill-rule:nonzero;"/></g><g transform="matrix(12,0,0,12,443.643,736.018)"><path d="M-0.242,-0.687c0.181,0.003 0.362,0.005 0.543,0.007c0,-0 -0.001,0.173 -0.001,0.173c-0,0 -0.18,-0.001 -0.18,-0.001c-0.001,0.177 -0.002,0.353 -0.002,0.53c-0,0 -0.179,0.001 -0.179,0.001c0.001,-0.178 0.001,-0.355 0.002,-0.533c0,0 -0.184,-0.001 -0.184,-0.001c0,-0 0.001,-0.176 0.001,-0.176Z" style="fill:#fff;fill-rule:nonzero;"/></g><g transform="matrix(8.57143,0,0,8.57143,452.309,736.018)"><path d="M-0.503,0.03c0,-0.233 0.001,-0.467 0.002,-0.7c0,-0 0.291,0.002 0.291,0.002c0.04,0 0.084,0.002 0.122,0.018c0.03,0.012 0.053,0.036 0.068,0.064c0.019,0.034 0.026,0.074 0.026,0.113c-0.001,0.034 -0.006,0.069 -0.021,0.1c-0.012,0.026 -0.031,0.05 -0.054,0.068c-0.018,0.013 -0.04,0.021 -0.061,0.027c0.014,0.006 0.033,0.015 0.045,0.026c0.009,0.008 0.022,0.028 0.027,0.036c0.008,0.012 0.019,0.03 0.024,0.044c0,-0 0.083,0.201 0.083,0.201c-0,0 -0.195,0 -0.195,0c0,0 -0.092,-0.213 -0.092,-0.213c-0.007,-0.015 -0.017,-0.04 -0.031,-0.053c-0.012,-0.011 -0.027,-0.017 -0.043,-0.017l-0.015,0c-0,0 -0.001,0.284 -0.001,0.284c0,-0 -0.175,0 -0.175,0Zm0.176,-0.416c0,0 0.074,0.001 0.074,0.001c0.012,-0 0.037,-0.007 0.046,-0.01c0.012,-0.003 0.021,-0.011 0.028,-0.022c0.008,-0.012 0.011,-0.026 0.011,-0.04c0,-0.018 -0.004,-0.038 -0.017,-0.052c-0.016,-0.017 -0.043,-0.018 -0.065,-0.018c0,-0 -0.076,-0.001 -0.076,-0.001c0,0 -0.001,0.142 -0.001,0.142Z" style="fill:#fff;fill-rule:nonzero;"/></g><g transform="matrix(8.57143,0,0,8.57143,458.976,736.018)"><path d="M-0.335,-0.086c0,0 -0.193,0 -0.193,0c-0,0 -0.027,0.115 -0.027,0.115c-0,-0 -0.175,0 -0.175,0c0.07,-0.231 0.14,-0.462 0.211,-0.693c-0,-0 0.185,0.001 0.185,0.001c0.067,0.231 0.134,0.461 0.202,0.691c-0,-0 -0.176,0 -0.176,0c-0,0 -0.027,-0.114 -0.027,-0.114Zm-0.035,-0.149c0,-0 -0.059,-0.249 -0.059,-0.249c-0,-0 -0.062,0.249 -0.062,0.249c0,-0 0.121,-0 0.121,-0Z" style="fill:#fff;fill-rule:nonzero;"/></g><g transform="matrix(8.57143,0,0,8.57143,465.644,736.018)"><path d="M-0.852,-0.66c-0,-0 0.155,0.001 0.155,0.001c0,-0 0.2,0.38 0.2,0.38c0,0 0.002,-0.378 0.002,-0.378c0,-0 0.155,0.001 0.155,0.001c-0.001,0.227 -0.002,0.455 -0.003,0.682c0,0 -0.155,0.001 -0.155,0.001c0,-0 -0.199,-0.377 -0.199,-0.377c-0,0 -0.002,0.377 -0.002,0.377c0,0 -0.156,0.001 -0.156,0.001c0,-0.23 0.001,-0.459 0.003,-0.688Z" style="fill:#fff;fill-rule:nonzero;"/></g><g transform="matrix(8.57143,0,0,8.57143,472.784,736.018)"><path d="M-1.095,-0.199c0,-0 0.155,-0.013 0.155,-0.013c0.003,0.026 0.007,0.053 0.02,0.075c0.016,0.026 0.041,0.041 0.072,0.041c0.02,-0 0.039,-0.006 0.053,-0.021c0.012,-0.014 0.019,-0.031 0.019,-0.049c0,-0.017 -0.006,-0.034 -0.018,-0.047c-0.019,-0.023 -0.055,-0.032 -0.082,-0.04c-0.055,-0.016 -0.114,-0.039 -0.152,-0.083c-0.032,-0.036 -0.046,-0.083 -0.046,-0.131c0.001,-0.035 0.009,-0.069 0.025,-0.099c0.015,-0.031 0.04,-0.056 0.071,-0.073c0.039,-0.022 0.086,-0.026 0.129,-0.026c0.054,0.001 0.112,0.012 0.153,0.05c0.041,0.039 0.056,0.099 0.061,0.154c-0,-0 -0.152,0.011 -0.152,0.011c-0.003,-0.024 -0.009,-0.049 -0.025,-0.067c-0.014,-0.015 -0.034,-0.021 -0.054,-0.021c-0.015,-0.001 -0.031,0.003 -0.042,0.015c-0.01,0.01 -0.015,0.023 -0.015,0.038c-0,0.011 0.004,0.021 0.012,0.029c0.012,0.014 0.037,0.02 0.054,0.025c0.051,0.015 0.106,0.031 0.151,0.061c0.028,0.019 0.052,0.044 0.066,0.075c0.014,0.031 0.021,0.066 0.02,0.1c0,0.042 -0.009,0.083 -0.028,0.12c-0.017,0.035 -0.044,0.064 -0.077,0.084c-0.038,0.021 -0.083,0.028 -0.126,0.028c-0.066,0 -0.143,-0.011 -0.186,-0.066c-0.037,-0.049 -0.054,-0.11 -0.058,-0.17Z" style="fill:#fff;fill-rule:nonzero;"/></g><g transform="matrix(8.57143,0,0,8.57143,478.974,736.018)"><path d="M-1.259,-0.65c0,-0 0.16,0.001 0.16,0.001c-0.001,0.169 -0.002,0.339 -0.003,0.508c-0,-0 0.246,-0 0.246,-0c0,-0 -0.001,0.165 -0.001,0.165c-0.135,0 -0.27,0.001 -0.405,0.001c0.001,-0.225 0.002,-0.45 0.003,-0.675Z" style="fill:#fff;fill-rule:nonzero;"/></g><g transform="matrix(8.57143,0,0,8.57143,484.691,736.018)"><path d="M-1.142,-0.087c0,0 -0.177,0 -0.177,0c0,0 -0.024,0.111 -0.024,0.111c-0,-0 -0.16,0 -0.16,0c0.064,-0.223 0.129,-0.446 0.194,-0.669c-0,0 0.169,0.002 0.169,0.002c0.061,0.222 0.122,0.444 0.183,0.666c0,-0 -0.161,0 -0.161,0c0,0 -0.024,-0.11 -0.024,-0.11Zm-0.031,-0.144c-0,0 -0.054,-0.24 -0.054,-0.24c-0,-0 -0.057,0.24 -0.057,0.24c-0,-0 0.111,0 0.111,0Z" style="fill:#fff;fill-rule:nonzero;"/></g><g transform="matrix(8.57143,0,0,8.57143,490.768,736.018)"><path d="M-1.695,-0.642c0.154,0.001 0.309,0.003 0.463,0.004c-0,0 -0.001,0.163 -0.001,0.163c-0,0 -0.155,-0.001 -0.155,-0.001c-0.001,0.166 -0.002,0.332 -0.003,0.498c0,0 -0.152,0.001 -0.152,0.001c0.001,-0.167 0.002,-0.333 0.003,-0.5c0,0 -0.156,-0.001 -0.156,-0.001c-0,0 0.001,-0.164 0.001,-0.164Z" style="fill:#fff;fill-rule:nonzero;"/></g><g transform="matrix(8.57143,0,0,8.57143,496.665,736.018)"><path d="M-1.897,-0.307c0.001,-0.087 0.015,-0.18 0.069,-0.251c0.044,-0.059 0.111,-0.089 0.184,-0.088c0.073,0 0.141,0.029 0.184,0.089c0.051,0.07 0.064,0.162 0.063,0.246c-0,0.063 -0.006,0.129 -0.029,0.188c-0.017,0.045 -0.044,0.085 -0.082,0.115c-0.039,0.029 -0.087,0.041 -0.134,0.041c-0.047,-0 -0.096,-0.009 -0.135,-0.035c-0.041,-0.027 -0.068,-0.069 -0.087,-0.113c-0.026,-0.06 -0.033,-0.127 -0.033,-0.192Zm0.151,0.001c-0.001,0.046 0.001,0.103 0.026,0.143c0.016,0.027 0.042,0.044 0.074,0.044c0.031,-0 0.058,-0.016 0.074,-0.043c0.027,-0.042 0.027,-0.104 0.027,-0.152c0.001,-0.044 -0.002,-0.097 -0.026,-0.135c-0.017,-0.027 -0.043,-0.043 -0.074,-0.044c-0.031,0 -0.057,0.018 -0.073,0.043c-0.026,0.041 -0.028,0.098 -0.028,0.144Z" style="fill:#fff;fill-rule:nonzero;"/></g><g transform="matrix(8.57143,0,0,8.57143,503.805,736.018)"><path d="M-2.151,0.021c0.002,-0.218 0.003,-0.435 0.005,-0.653c-0,-0 0.244,0.002 0.244,0.002c0.034,0.001 0.071,0.003 0.102,0.017c0.026,0.012 0.045,0.035 0.057,0.06c0.016,0.032 0.021,0.069 0.021,0.105c-0,0.032 -0.005,0.064 -0.018,0.093c-0.01,0.024 -0.025,0.046 -0.046,0.063c-0.014,0.012 -0.033,0.02 -0.051,0.026c0.013,0.005 0.028,0.014 0.038,0.024c0.008,0.007 0.018,0.026 0.023,0.034c0.006,0.011 0.015,0.028 0.02,0.04c-0,0 0.068,0.188 0.068,0.188c0,0 -0.163,0 -0.163,0c0,0 -0.076,-0.198 -0.076,-0.198c-0.006,-0.015 -0.014,-0.038 -0.026,-0.05c-0.01,-0.01 -0.022,-0.016 -0.036,-0.016l-0.013,0c0,0 -0.002,0.265 -0.002,0.265c0,-0 -0.147,-0 -0.147,-0Zm0.15,-0.388c-0,0 0.061,0.001 0.061,0.001c0.01,-0 0.032,-0.007 0.039,-0.009c0.011,-0.003 0.019,-0.011 0.024,-0.02c0.006,-0.012 0.009,-0.025 0.009,-0.038c0,-0.017 -0.003,-0.035 -0.014,-0.048c-0.013,-0.016 -0.036,-0.018 -0.054,-0.018c0,0 -0.064,-0 -0.064,-0c-0,-0 -0.001,0.132 -0.001,0.132Z" style="fill:#fff;fill-rule:nonzero;"/></g></g></g><g id="RQA-line" serif:id="RQA line"><g><path d="M1704.62,1548.76c0,0 2.256,-17.91 7.062,-17.878c4.78,0.033 6.784,16.66 6.784,16.66l-13.846,1.218Zm-16.407,-9.62c-0.323,0.897 -0.762,1.677 -1.315,2.339c-0.554,0.663 -1.212,1.185 -1.973,1.57c-0.762,0.384 -1.582,0.576 -2.458,0.576l-13.676,0.257c0,-0 1.553,-10.858 4.158,-13.464c2.044,-2.043 9.103,-1.531 9.103,-1.531c0.83,0 1.649,0.183 2.457,0.545c0.807,0.364 1.523,0.876 2.146,1.538c0.624,0.663 1.119,1.442 1.489,2.339c0.369,0.897 0.554,1.88 0.554,2.947c-0,1.026 -0.163,1.987 -0.485,2.884m36.538,5.347c-3.602,-9.14 -6.179,-19.202 -8.846,-23.665c-1.084,-1.812 -6.7,-1.186 -8.446,0c-5.405,3.671 -4.971,11.923 -8.363,23.097c-1.203,3.966 -3.351,8.214 -5.421,12.033l-4.216,-6.431c2.723,-1.068 4.881,-2.809 6.473,-5.223c1.592,-2.413 2.388,-5.094 2.388,-8.042c0,-1.836 -0.392,-3.662 -1.176,-5.478c-0.786,-1.815 -1.87,-3.438 -3.254,-4.87c-1.385,-1.431 -3.035,-2.584 -4.95,-3.46c-1.916,-0.875 -4.005,-1.314 -6.265,-1.314c-0,0 -15.599,-1.441 -18.156,1.872c-3.999,5.179 -5.179,36.539 -1.919,43.624c0.998,2.169 8.087,1.885 9.554,-0c1.719,-2.211 -3.363,-14.961 -3.363,-14.961c0,-0 8.285,-1.774 11.115,-0.29c3.071,1.611 7.269,9.577 9.11,13.311c-0.855,1.903 -1.118,3.167 -0.318,3.462c1.929,0.712 8.608,-0.793 10.121,-2.008c2.427,-1.95 4.209,-11.168 4.209,-11.168l16.179,-1.767c0,-0 2.086,10.669 4.62,12.38c2.036,1.376 7.365,2.785 8.685,0.431c2.928,-5.222 -3.243,-10.067 -7.761,-21.533" style="fill:#fff;fill-rule:nonzero;"/><path d="M1706.43,1556.91c4.762,7.415 19.553,-5.346 0,0" style="fill:#fff;fill-rule:nonzero;"/></g><rect x="1539.32" y="1539.81" width="105.427" height="8.401" style="fill:#fff;"/><rect x="1749.23" y="1539.81" width="105.427" height="8.401" style="fill:#fff;"/></g><g><path d="M1302.88,799.936c-34.077,84.27 -87.247,158.258 -144.47,226.462c-2.396,-1.4 -4.774,-2.826 -7.14,-4.285c57.46,-67.241 110.399,-139.972 146.746,-222.203c1.622,0.01 3.243,0.018 4.864,0.026Z" style="fill:#fff;"/></g></g></svg>